<svg width="100%" viewBox="0 0 685 430" fill="none" xmlns="http://www.w3.org/2000/svg">
    <path d="M148.641 8.25778H73.1406V93.1953H148.641V8.25778Z" fill="#263047"/>
    <path d="M626.414 370.422V125.047L450.641 24.7733L274.867 125.047V370.422" fill="#263047"/>
    <path d="M645.289 160.437C641.75 160.437 637.031 159.258 633.492 156.898L450.641 51.9062L267.789 156.898C255.992 163.976 241.836 159.258 235.938 148.641C228.859 136.844 233.578 122.687 244.195 116.789L438.844 4.71866C445.922 -9.14335e-05 455.359 -9.14335e-05 462.438 4.71866L657.086 116.789C668.883 123.867 672.422 138.023 665.344 148.641C660.625 155.719 653.547 160.437 645.289 160.437Z"
          fill="#263047"/>
    <path d="M450.641 1.1796H234.758V128.586H450.641V1.1796Z" fill="#263047"/>
    <path d="M654.727 429.406H29.4922C12.9766 429.406 0 416.43 0 399.914C0 383.398 12.9766 370.422 29.4922 370.422H654.727C671.242 370.422 684.219 383.398 684.219 399.914C684.219 416.43 671.242 429.406 654.727 429.406Z"
          fill="#E3E3E3"/>
    <path d="M409.352 370.422V125.047L234.758 24.7733L58.9844 125.047V370.422" fill="#E3E3E3"/>
    <path d="M273.688 370.422H194.648V323.234C194.648 302 212.344 284.305 233.578 284.305C254.812 284.305 272.508 302 272.508 323.234V370.422H273.688Z"
          fill="#263047"/>
    <path d="M428.227 160.437C424.688 160.437 419.969 159.258 416.43 156.898L234.758 51.9062L51.9063 156.898C40.1094 163.976 25.9531 159.258 20.0547 148.641C12.9766 136.844 17.6953 122.687 28.3125 116.789L222.961 4.71866C230.039 -9.14335e-05 239.477 -9.14335e-05 246.555 4.71866L441.203 116.789C453 123.867 456.539 138.023 449.461 148.641C444.742 155.719 436.484 160.437 428.227 160.437Z"
          fill="#263047"/>
    <path d="M158.078 317.336H106.172V286.664C106.172 272.508 117.969 260.711 132.125 260.711C146.281 260.711 158.078 272.508 158.078 286.664V317.336Z"
          fill="#A5BCD1"/>
    <path d="M362.164 317.336H310.258V286.664C310.258 272.508 322.055 260.711 336.211 260.711C350.367 260.711 362.164 272.508 362.164 286.664V317.336Z"
          fill="#A5BCD1"/>
    <path d="M158.078 231.219H106.172V200.547C106.172 186.391 117.969 174.594 132.125 174.594C146.281 174.594 158.078 186.391 158.078 200.547V231.219Z"
          fill="#A5BCD1"/>
    <path d="M362.164 231.219H310.258V200.547C310.258 186.391 322.055 174.594 336.211 174.594C350.367 174.594 362.164 186.391 362.164 200.547V231.219Z"
          fill="#A5BCD1"/>
    <path d="M260.711 231.219H208.805V200.547C208.805 186.391 220.602 174.594 234.758 174.594C248.914 174.594 260.711 186.391 260.711 200.547V231.219Z"
          fill="#A5BCD1"/>
    <path d="M506.086 231.219H454.18V200.547C454.18 186.391 465.977 174.594 480.133 174.594C494.289 174.594 506.086 186.391 506.086 200.547V231.219Z"
          fill="#A5BCD1"/>
    <path d="M592.203 231.219H540.297V200.547C540.297 186.391 552.094 174.594 566.25 174.594C580.406 174.594 592.203 186.391 592.203 200.547V231.219Z"
          fill="#A5BCD1"/>
    <path d="M506.086 317.336H454.18V286.664C454.18 272.508 465.977 260.711 480.133 260.711C494.289 260.711 506.086 272.508 506.086 286.664V317.336Z"
          fill="#A5BCD1"/>
    <path d="M592.203 317.336H540.297V286.664C540.297 272.508 552.094 260.711 566.25 260.711C580.406 260.711 592.203 272.508 592.203 286.664V317.336Z"
          fill="#A5BCD1"/>
    <path d="M149.82 16.5156H71.9609C67.2421 16.5156 63.7031 12.9765 63.7031 8.25779C63.7031 3.53904 67.2421 0 71.9609 0H149.82C154.539 0 158.078 3.53904 158.078 8.25779C158.078 12.9765 154.539 16.5156 149.82 16.5156Z"
          fill="#263047"/>
    <path d="M33.0312 370.422C33.0312 356.266 44.8281 344.469 60.1641 344.469C75.5 344.469 86.1172 356.266 86.1172 370.422"
          fill="#263047"/>
    <path d="M106.172 370.422C106.172 358.625 115.609 350.367 126.227 350.367C136.844 350.367 146.281 359.805 146.281 370.422"
          fill="#263047"/>
    <path d="M138.023 370.422C138.023 363.344 143.922 357.445 151 357.445C158.078 357.445 163.977 363.344 163.977 370.422"
          fill="#263047"/>
    <path d="M53.0859 370.422C53.0859 350.367 69.6016 333.851 89.6563 333.851C109.711 333.851 126.227 350.367 126.227 370.422"
          fill="#263047"/>
    <path d="M552.094 370.422C552.094 356.266 563.891 344.469 578.047 344.469C592.203 344.469 604 356.266 604 370.422"
          fill="#75C6A8"/>
    <path d="M622.875 370.422C622.875 359.805 631.133 350.367 642.93 350.367C653.547 350.367 662.984 358.625 662.984 370.422"
          fill="#75C6A8"/>
    <path d="M572.148 370.422C572.148 350.367 588.664 333.851 608.719 333.851C628.773 333.851 645.289 350.367 645.289 370.422"
          fill="#75C6A8"/>
    <path d="M234.758 208.805C222.961 208.805 213.523 218.242 212.344 228.859C212.344 230.039 212.344 230.039 213.523 231.219C219.422 232.398 226.5 233.578 234.758 233.578C241.836 233.578 250.094 232.398 255.992 231.219C257.172 231.219 257.172 230.039 257.172 228.859C255.992 217.062 246.555 208.805 234.758 208.805Z"
          fill="#263047"/>
    <path d="M234.758 211.164C241.925 211.164 247.734 205.882 247.734 199.367C247.734 192.852 241.925 187.57 234.758 187.57C227.591 187.57 221.781 192.852 221.781 199.367C221.781 205.882 227.591 211.164 234.758 211.164Z"
          fill="#263047"/>
</svg>
